<svg width="29" height="11" viewBox="0 0 29 11" fill="none" xmlns="http://www.w3.org/2000/svg">
<path d="M3.96 8.104L6.72 1.6H7.86L3.96 10.42L0.06 1.6H1.2L3.96 8.104ZM9.99694 10.12C9.48494 10.12 9.02894 10 8.62894 9.76C8.23694 9.512 7.92894 9.172 7.70494 8.74C7.48894 8.308 7.38094 7.808 7.38094 7.24C7.38094 6.664 7.49294 6.16 7.71694 5.728C7.94894 5.296 8.26894 4.96 8.67694 4.72C9.09294 4.48 9.57294 4.36 10.1169 4.36C10.6609 4.36 11.1249 4.476 11.5089 4.708C11.9009 4.932 12.2009 5.256 12.4089 5.68C12.6169 6.104 12.7209 6.608 12.7209 7.192C12.7209 7.248 12.7169 7.308 12.7089 7.372C12.7089 7.428 12.7089 7.464 12.7089 7.48H7.99294V6.664H11.9529L11.5689 7.216C11.5929 7.176 11.6169 7.116 11.6409 7.036C11.6649 6.948 11.6769 6.876 11.6769 6.82C11.6769 6.492 11.6089 6.208 11.4729 5.968C11.3449 5.728 11.1649 5.54 10.9329 5.404C10.7009 5.268 10.4289 5.2 10.1169 5.2C9.74894 5.2 9.43294 5.28 9.16894 5.44C8.91294 5.592 8.71294 5.816 8.56894 6.112C8.43294 6.4 8.36094 6.756 8.35294 7.18C8.35294 7.612 8.42094 7.98 8.55694 8.284C8.69294 8.588 8.89294 8.82 9.15694 8.98C9.42094 9.14 9.74094 9.22 10.1169 9.22C10.4929 9.22 10.8249 9.14 11.1129 8.98C11.4009 8.812 11.6449 8.56 11.8449 8.224L12.6249 8.716C12.3369 9.18 11.9729 9.532 11.5329 9.772C11.1009 10.004 10.5889 10.12 9.99694 10.12ZM14.0367 0.64H14.9967V10H14.0367V0.64ZM15.9623 4.48H18.7223V5.38H15.9623V4.48ZM16.8623 2.56H17.8223V10H16.8623V2.56ZM20.1172 8.296C20.1172 8.504 20.1652 8.684 20.2612 8.836C20.3652 8.988 20.5052 9.104 20.6812 9.184C20.8652 9.256 21.0732 9.292 21.3052 9.292C21.6012 9.292 21.8652 9.232 22.0972 9.112C22.3372 8.992 22.5252 8.824 22.6612 8.608C22.8052 8.384 22.8772 8.128 22.8772 7.84L23.0692 8.56C23.0692 8.912 22.9612 9.204 22.7452 9.436C22.5372 9.668 22.2772 9.84 21.9652 9.952C21.6612 10.064 21.3572 10.12 21.0532 10.12C20.7172 10.12 20.4012 10.052 20.1052 9.916C19.8172 9.772 19.5852 9.568 19.4092 9.304C19.2332 9.04 19.1452 8.72 19.1452 8.344C19.1452 7.808 19.3332 7.38 19.7092 7.06C20.0932 6.732 20.6252 6.568 21.3052 6.568C21.7052 6.568 22.0372 6.616 22.3012 6.712C22.5732 6.8 22.7892 6.904 22.9492 7.024C23.1092 7.136 23.2172 7.228 23.2732 7.3V7.864C22.9932 7.672 22.7052 7.536 22.4092 7.456C22.1132 7.368 21.7972 7.324 21.4612 7.324C21.1492 7.324 20.8932 7.364 20.6932 7.444C20.5012 7.524 20.3572 7.636 20.2612 7.78C20.1652 7.924 20.1172 8.096 20.1172 8.296ZM19.9732 5.752L19.5052 5.044C19.7132 4.892 19.9972 4.74 20.3572 4.588C20.7252 4.436 21.1652 4.36 21.6772 4.36C22.1092 4.36 22.4852 4.428 22.8052 4.564C23.1332 4.692 23.3852 4.88 23.5612 5.128C23.7452 5.376 23.8372 5.68 23.8372 6.04V10H22.8772V6.172C22.8772 5.98 22.8452 5.824 22.7812 5.704C22.7172 5.576 22.6252 5.476 22.5052 5.404C22.3932 5.332 22.2612 5.28 22.1092 5.248C21.9572 5.216 21.7972 5.2 21.6292 5.2C21.3572 5.2 21.1092 5.232 20.8852 5.296C20.6692 5.36 20.4852 5.436 20.3332 5.524C20.1812 5.612 20.0612 5.688 19.9732 5.752ZM26.4225 4.48V10H25.4625V4.48H26.4225ZM28.0905 5.536C27.9625 5.44 27.8465 5.372 27.7425 5.332C27.6385 5.284 27.5065 5.26 27.3465 5.26C27.1065 5.26 26.9185 5.32 26.7825 5.44C26.6465 5.56 26.5505 5.724 26.4945 5.932C26.4465 6.14 26.4225 6.376 26.4225 6.64H25.9905C25.9905 6.2 26.0665 5.812 26.2185 5.476C26.3785 5.132 26.5825 4.86 26.8305 4.66C27.0785 4.46 27.3305 4.36 27.5865 4.36C27.7865 4.36 27.9705 4.388 28.1385 4.444C28.3145 4.492 28.4745 4.592 28.6185 4.744L28.0905 5.536Z" fill="black"/>
</svg>
