<svg width="152" height="17" viewBox="0 0 152 17" fill="none" xmlns="http://www.w3.org/2000/svg">
<path d="M0.96 4.6H1.98V13H0.96V4.6ZM7.38141 9.64C7.38141 9.184 7.28141 8.84 7.08141 8.608C6.88141 8.376 6.58941 8.26 6.20541 8.26C5.92541 8.26 5.67741 8.32 5.46141 8.44C5.25341 8.552 5.08941 8.712 4.96941 8.92C4.85741 9.128 4.80141 9.368 4.80141 9.64V13H3.84141V7.48H4.80141V8.344C4.98541 8.008 5.21341 7.76 5.48541 7.6C5.76541 7.44 6.08541 7.36 6.44541 7.36C7.02941 7.36 7.48941 7.556 7.82541 7.948C8.16941 8.332 8.34141 8.856 8.34141 9.52V13H7.38141V9.64ZM9.30609 7.48H12.0661V8.38H9.30609V7.48ZM10.2061 5.56H11.1661V13H10.2061V5.56ZM15.1649 13.12C14.6529 13.12 14.1969 13 13.7969 12.76C13.4049 12.512 13.0969 12.172 12.8729 11.74C12.6569 11.308 12.5489 10.808 12.5489 10.24C12.5489 9.664 12.6609 9.16 12.8849 8.728C13.1169 8.296 13.4369 7.96 13.8449 7.72C14.2609 7.48 14.7409 7.36 15.2849 7.36C15.8289 7.36 16.2929 7.476 16.6769 7.708C17.0689 7.932 17.3689 8.256 17.5769 8.68C17.7849 9.104 17.8889 9.608 17.8889 10.192C17.8889 10.248 17.8849 10.308 17.8769 10.372C17.8769 10.428 17.8769 10.464 17.8769 10.48H13.1609V9.664H17.1209L16.7369 10.216C16.7609 10.176 16.7849 10.116 16.8089 10.036C16.8329 9.948 16.8449 9.876 16.8449 9.82C16.8449 9.492 16.7769 9.208 16.6409 8.968C16.5129 8.728 16.3329 8.54 16.1009 8.404C15.8689 8.268 15.5969 8.2 15.2849 8.2C14.9169 8.2 14.6009 8.28 14.3369 8.44C14.0809 8.592 13.8809 8.816 13.7369 9.112C13.6009 9.4 13.5289 9.756 13.5209 10.18C13.5209 10.612 13.5889 10.98 13.7249 11.284C13.8609 11.588 14.0609 11.82 14.3249 11.98C14.5889 12.14 14.9089 12.22 15.2849 12.22C15.6609 12.22 15.9929 12.14 16.2809 11.98C16.5689 11.812 16.8129 11.56 17.0129 11.224L17.7929 11.716C17.5049 12.18 17.1409 12.532 16.7009 12.772C16.2689 13.004 15.7569 13.12 15.1649 13.12ZM20.1647 7.48V13H19.2047V7.48H20.1647ZM21.8327 8.536C21.7047 8.44 21.5887 8.372 21.4847 8.332C21.3807 8.284 21.2487 8.26 21.0887 8.26C20.8487 8.26 20.6607 8.32 20.5247 8.44C20.3887 8.56 20.2927 8.724 20.2367 8.932C20.1887 9.14 20.1647 9.376 20.1647 9.64H19.7327C19.7327 9.2 19.8087 8.812 19.9607 8.476C20.1207 8.132 20.3247 7.86 20.5727 7.66C20.8207 7.46 21.0727 7.36 21.3287 7.36C21.5287 7.36 21.7127 7.388 21.8807 7.444C22.0567 7.492 22.2167 7.592 22.3607 7.744L21.8327 8.536ZM23.5742 10.24C23.5742 10.624 23.6542 10.964 23.8142 11.26C23.9822 11.556 24.2062 11.792 24.4862 11.968C24.7742 12.136 25.0982 12.22 25.4582 12.22C25.7542 12.22 26.0302 12.176 26.2862 12.088C26.5502 11.992 26.7782 11.868 26.9702 11.716C27.1622 11.556 27.2982 11.388 27.3782 11.212V12.412C27.1862 12.636 26.9102 12.812 26.5502 12.94C26.1982 13.06 25.8342 13.12 25.4582 13.12C24.9222 13.12 24.4382 12.996 24.0062 12.748C23.5742 12.5 23.2302 12.16 22.9742 11.728C22.7262 11.288 22.6022 10.792 22.6022 10.24C22.6022 9.68 22.7262 9.184 22.9742 8.752C23.2302 8.32 23.5742 7.98 24.0062 7.732C24.4382 7.484 24.9222 7.36 25.4582 7.36C25.8342 7.36 26.1982 7.424 26.5502 7.552C26.9102 7.672 27.1862 7.844 27.3782 8.068V9.268C27.2982 9.084 27.1622 8.916 26.9702 8.764C26.7782 8.612 26.5502 8.492 26.2862 8.404C26.0302 8.308 25.7542 8.26 25.4582 8.26C25.0982 8.26 24.7742 8.344 24.4862 8.512C24.2062 8.68 23.9822 8.916 23.8142 9.22C23.6542 9.516 23.5742 9.856 23.5742 10.24ZM28.3927 10.24C28.3927 9.68 28.5167 9.184 28.7647 8.752C29.0207 8.32 29.3647 7.98 29.7967 7.732C30.2287 7.484 30.7127 7.36 31.2487 7.36C31.7927 7.36 32.2767 7.484 32.7007 7.732C33.1327 7.98 33.4727 8.32 33.7207 8.752C33.9767 9.184 34.1047 9.68 34.1047 10.24C34.1047 10.792 33.9767 11.288 33.7207 11.728C33.4727 12.16 33.1327 12.5 32.7007 12.748C32.2767 12.996 31.7927 13.12 31.2487 13.12C30.7127 13.12 30.2287 12.996 29.7967 12.748C29.3647 12.5 29.0207 12.16 28.7647 11.728C28.5167 11.288 28.3927 10.792 28.3927 10.24ZM29.3647 10.24C29.3647 10.624 29.4447 10.964 29.6047 11.26C29.7727 11.556 29.9967 11.792 30.2767 11.968C30.5647 12.136 30.8887 12.22 31.2487 12.22C31.6087 12.22 31.9287 12.136 32.2087 11.968C32.4967 11.792 32.7207 11.556 32.8807 11.26C33.0487 10.964 33.1327 10.624 33.1327 10.24C33.1327 9.856 33.0487 9.516 32.8807 9.22C32.7207 8.916 32.4967 8.68 32.2087 8.512C31.9287 8.344 31.6087 8.26 31.2487 8.26C30.8887 8.26 30.5647 8.344 30.2767 8.512C29.9967 8.68 29.7727 8.916 29.6047 9.22C29.4447 9.516 29.3647 9.856 29.3647 10.24ZM38.9634 9.64C38.9634 9.184 38.8634 8.84 38.6634 8.608C38.4634 8.376 38.1714 8.26 37.7874 8.26C37.5074 8.26 37.2594 8.32 37.0434 8.44C36.8354 8.552 36.6714 8.712 36.5514 8.92C36.4394 9.128 36.3834 9.368 36.3834 9.64V13H35.4234V7.48H36.3834V8.344C36.5674 8.008 36.7954 7.76 37.0674 7.6C37.3474 7.44 37.6674 7.36 38.0274 7.36C38.6114 7.36 39.0714 7.556 39.4074 7.948C39.7514 8.332 39.9234 8.856 39.9234 9.52V13H38.9634V9.64ZM40.8881 7.48H43.6481V8.38H40.8881V7.48ZM41.7881 5.56H42.7481V13H41.7881V5.56ZM44.6109 5.2C44.6109 5.016 44.6749 4.86 44.8029 4.732C44.9389 4.604 45.0949 4.54 45.2709 4.54C45.4549 4.54 45.6109 4.604 45.7389 4.732C45.8669 4.86 45.9309 5.016 45.9309 5.2C45.9309 5.376 45.8669 5.532 45.7389 5.668C45.6109 5.796 45.4549 5.86 45.2709 5.86C45.0949 5.86 44.9389 5.796 44.8029 5.668C44.6749 5.532 44.6109 5.376 44.6109 5.2ZM44.7909 7.48H45.7509V13H44.7909V7.48ZM51.2681 9.64C51.2681 9.184 51.1681 8.84 50.9681 8.608C50.7681 8.376 50.4761 8.26 50.0921 8.26C49.8121 8.26 49.5641 8.32 49.3481 8.44C49.1401 8.552 48.9761 8.712 48.8561 8.92C48.7441 9.128 48.6881 9.368 48.6881 9.64V13H47.7281V7.48H48.6881V8.344C48.8721 8.008 49.1001 7.76 49.3721 7.6C49.6521 7.44 49.9721 7.36 50.3321 7.36C50.9161 7.36 51.3761 7.556 51.7121 7.948C52.0561 8.332 52.2281 8.856 52.2281 9.52V13H51.2681V9.64ZM56.1688 13.12C55.6568 13.12 55.2008 13 54.8008 12.76C54.4088 12.512 54.1008 12.172 53.8768 11.74C53.6608 11.308 53.5528 10.808 53.5528 10.24C53.5528 9.664 53.6648 9.16 53.8888 8.728C54.1208 8.296 54.4408 7.96 54.8488 7.72C55.2648 7.48 55.7448 7.36 56.2888 7.36C56.8328 7.36 57.2968 7.476 57.6808 7.708C58.0728 7.932 58.3728 8.256 58.5808 8.68C58.7888 9.104 58.8928 9.608 58.8928 10.192C58.8928 10.248 58.8888 10.308 58.8808 10.372C58.8808 10.428 58.8808 10.464 58.8808 10.48H54.1648V9.664H58.1248L57.7408 10.216C57.7648 10.176 57.7888 10.116 57.8128 10.036C57.8368 9.948 57.8488 9.876 57.8488 9.82C57.8488 9.492 57.7808 9.208 57.6448 8.968C57.5168 8.728 57.3368 8.54 57.1048 8.404C56.8728 8.268 56.6008 8.2 56.2888 8.2C55.9208 8.2 55.6048 8.28 55.3408 8.44C55.0848 8.592 54.8848 8.816 54.7408 9.112C54.6048 9.4 54.5328 9.756 54.5248 10.18C54.5248 10.612 54.5928 10.98 54.7288 11.284C54.8648 11.588 55.0648 11.82 55.3288 11.98C55.5928 12.14 55.9128 12.22 56.2888 12.22C56.6648 12.22 56.9968 12.14 57.2848 11.98C57.5728 11.812 57.8168 11.56 58.0168 11.224L58.7968 11.716C58.5088 12.18 58.1448 12.532 57.7048 12.772C57.2728 13.004 56.7608 13.12 56.1688 13.12ZM63.7486 9.64C63.7486 9.184 63.6486 8.84 63.4486 8.608C63.2486 8.376 62.9566 8.26 62.5726 8.26C62.2926 8.26 62.0446 8.32 61.8286 8.44C61.6206 8.552 61.4566 8.712 61.3366 8.92C61.2246 9.128 61.1686 9.368 61.1686 9.64V13H60.2086V7.48H61.1686V8.344C61.3526 8.008 61.5806 7.76 61.8526 7.6C62.1326 7.44 62.4526 7.36 62.8126 7.36C63.3966 7.36 63.8566 7.556 64.1926 7.948C64.5366 8.332 64.7086 8.856 64.7086 9.52V13H63.7486V9.64ZM65.6733 7.48H68.4333V8.38H65.6733V7.48ZM66.5733 5.56H67.5333V13H66.5733V5.56ZM69.8281 11.296C69.8281 11.504 69.8761 11.684 69.9721 11.836C70.0761 11.988 70.2161 12.104 70.3921 12.184C70.5761 12.256 70.7841 12.292 71.0161 12.292C71.3121 12.292 71.5761 12.232 71.8081 12.112C72.0481 11.992 72.2361 11.824 72.3721 11.608C72.5161 11.384 72.5881 11.128 72.5881 10.84L72.7801 11.56C72.7801 11.912 72.6721 12.204 72.4561 12.436C72.2481 12.668 71.9881 12.84 71.6761 12.952C71.3721 13.064 71.0681 13.12 70.7641 13.12C70.4281 13.12 70.1121 13.052 69.8161 12.916C69.5281 12.772 69.2961 12.568 69.1201 12.304C68.9441 12.04 68.8561 11.72 68.8561 11.344C68.8561 10.808 69.0441 10.38 69.4201 10.06C69.8041 9.732 70.3361 9.568 71.0161 9.568C71.4161 9.568 71.7481 9.616 72.0121 9.712C72.2841 9.8 72.5001 9.904 72.6601 10.024C72.8201 10.136 72.9281 10.228 72.9841 10.3V10.864C72.7041 10.672 72.4161 10.536 72.1201 10.456C71.8241 10.368 71.5081 10.324 71.1721 10.324C70.8601 10.324 70.6041 10.364 70.4041 10.444C70.2121 10.524 70.0681 10.636 69.9721 10.78C69.8761 10.924 69.8281 11.096 69.8281 11.296ZM69.6841 8.752L69.2161 8.044C69.4241 7.892 69.7081 7.74 70.0681 7.588C70.4361 7.436 70.8761 7.36 71.3881 7.36C71.8201 7.36 72.1961 7.428 72.5161 7.564C72.8441 7.692 73.0961 7.88 73.2721 8.128C73.4561 8.376 73.5481 8.68 73.5481 9.04V13H72.5881V9.172C72.5881 8.98 72.5561 8.824 72.4921 8.704C72.4281 8.576 72.3361 8.476 72.2161 8.404C72.1041 8.332 71.9721 8.28 71.8201 8.248C71.6681 8.216 71.5081 8.2 71.3401 8.2C71.0681 8.2 70.8201 8.232 70.5961 8.296C70.3801 8.36 70.1961 8.436 70.0441 8.524C69.8921 8.612 69.7721 8.688 69.6841 8.752ZM75.1734 3.64H76.1334V13H75.1734V3.64Z" fill="black"/>
<path d="M85.96 11.104L88.72 4.6H89.86L85.96 13.42L82.06 4.6H83.2L85.96 11.104ZM91.9969 13.12C91.4849 13.12 91.0289 13 90.6289 12.76C90.2369 12.512 89.9289 12.172 89.7049 11.74C89.4889 11.308 89.3809 10.808 89.3809 10.24C89.3809 9.664 89.4929 9.16 89.7169 8.728C89.9489 8.296 90.2689 7.96 90.6769 7.72C91.0929 7.48 91.5729 7.36 92.1169 7.36C92.6609 7.36 93.1249 7.476 93.5089 7.708C93.9009 7.932 94.2009 8.256 94.4089 8.68C94.6169 9.104 94.7209 9.608 94.7209 10.192C94.7209 10.248 94.7169 10.308 94.7089 10.372C94.7089 10.428 94.7089 10.464 94.7089 10.48H89.9929V9.664H93.9529L93.5689 10.216C93.5929 10.176 93.6169 10.116 93.6409 10.036C93.6649 9.948 93.6769 9.876 93.6769 9.82C93.6769 9.492 93.6089 9.208 93.4729 8.968C93.3449 8.728 93.1649 8.54 92.9329 8.404C92.7009 8.268 92.4289 8.2 92.1169 8.2C91.7489 8.2 91.4329 8.28 91.1689 8.44C90.9129 8.592 90.7129 8.816 90.5689 9.112C90.4329 9.4 90.3609 9.756 90.3529 10.18C90.3529 10.612 90.4209 10.98 90.5569 11.284C90.6929 11.588 90.8929 11.82 91.1569 11.98C91.4209 12.14 91.7409 12.22 92.1169 12.22C92.4929 12.22 92.8249 12.14 93.1129 11.98C93.4009 11.812 93.6449 11.56 93.8449 11.224L94.6249 11.716C94.3369 12.18 93.9729 12.532 93.5329 12.772C93.1009 13.004 92.5889 13.12 91.9969 13.12ZM96.0367 3.64H96.9967V13H96.0367V3.64ZM97.9623 7.48H100.722V8.38H97.9623V7.48ZM98.8623 5.56H99.8223V13H98.8623V5.56ZM102.117 11.296C102.117 11.504 102.165 11.684 102.261 11.836C102.365 11.988 102.505 12.104 102.681 12.184C102.865 12.256 103.073 12.292 103.305 12.292C103.601 12.292 103.865 12.232 104.097 12.112C104.337 11.992 104.525 11.824 104.661 11.608C104.805 11.384 104.877 11.128 104.877 10.84L105.069 11.56C105.069 11.912 104.961 12.204 104.745 12.436C104.537 12.668 104.277 12.84 103.965 12.952C103.661 13.064 103.357 13.12 103.053 13.12C102.717 13.12 102.401 13.052 102.105 12.916C101.817 12.772 101.585 12.568 101.409 12.304C101.233 12.04 101.145 11.72 101.145 11.344C101.145 10.808 101.333 10.38 101.709 10.06C102.093 9.732 102.625 9.568 103.305 9.568C103.705 9.568 104.037 9.616 104.301 9.712C104.573 9.8 104.789 9.904 104.949 10.024C105.109 10.136 105.217 10.228 105.273 10.3V10.864C104.993 10.672 104.705 10.536 104.409 10.456C104.113 10.368 103.797 10.324 103.461 10.324C103.149 10.324 102.893 10.364 102.693 10.444C102.501 10.524 102.357 10.636 102.261 10.78C102.165 10.924 102.117 11.096 102.117 11.296ZM101.973 8.752L101.505 8.044C101.713 7.892 101.997 7.74 102.357 7.588C102.725 7.436 103.165 7.36 103.677 7.36C104.109 7.36 104.485 7.428 104.805 7.564C105.133 7.692 105.385 7.88 105.561 8.128C105.745 8.376 105.837 8.68 105.837 9.04V13H104.877V9.172C104.877 8.98 104.845 8.824 104.781 8.704C104.717 8.576 104.625 8.476 104.505 8.404C104.393 8.332 104.261 8.28 104.109 8.248C103.957 8.216 103.797 8.2 103.629 8.2C103.357 8.2 103.109 8.232 102.885 8.296C102.669 8.36 102.485 8.436 102.333 8.524C102.181 8.612 102.061 8.688 101.973 8.752ZM108.423 7.48V13H107.463V7.48H108.423ZM110.09 8.536C109.963 8.44 109.847 8.372 109.743 8.332C109.639 8.284 109.507 8.26 109.347 8.26C109.107 8.26 108.919 8.32 108.783 8.44C108.647 8.56 108.551 8.724 108.495 8.932C108.447 9.14 108.423 9.376 108.423 9.64H107.991C107.991 9.2 108.067 8.812 108.219 8.476C108.379 8.132 108.583 7.86 108.831 7.66C109.079 7.46 109.331 7.36 109.587 7.36C109.787 7.36 109.971 7.388 110.139 7.444C110.315 7.492 110.475 7.592 110.619 7.744L110.09 8.536Z" fill="black"/>
<path d="M115.96 4.6H116.98V12.04H120.28V13H115.96V4.6ZM121.302 5.2C121.302 5.016 121.366 4.86 121.494 4.732C121.63 4.604 121.786 4.54 121.962 4.54C122.146 4.54 122.302 4.604 122.43 4.732C122.558 4.86 122.622 5.016 122.622 5.2C122.622 5.376 122.558 5.532 122.43 5.668C122.302 5.796 122.146 5.86 121.962 5.86C121.786 5.86 121.63 5.796 121.494 5.668C121.366 5.532 121.302 5.376 121.302 5.2ZM121.482 7.48H122.442V13H121.482V7.48ZM131.98 9.52V13H131.02V9.64C131.02 9.168 130.932 8.82 130.756 8.596C130.588 8.372 130.324 8.26 129.964 8.26C129.7 8.26 129.472 8.316 129.28 8.428C129.088 8.532 128.94 8.688 128.836 8.896C128.732 9.104 128.68 9.352 128.68 9.64V13H127.72V9.64C127.72 9.168 127.632 8.82 127.456 8.596C127.288 8.372 127.024 8.26 126.664 8.26C126.4 8.26 126.172 8.316 125.98 8.428C125.788 8.532 125.64 8.688 125.536 8.896C125.432 9.104 125.38 9.352 125.38 9.64V13H124.42V7.48H125.38V8.284C125.548 7.972 125.756 7.74 126.004 7.588C126.26 7.436 126.56 7.36 126.904 7.36C127.288 7.36 127.616 7.452 127.888 7.636C128.168 7.812 128.372 8.064 128.5 8.392C128.692 8.048 128.932 7.792 129.22 7.624C129.508 7.448 129.836 7.36 130.204 7.36C130.58 7.36 130.9 7.444 131.164 7.612C131.428 7.78 131.628 8.028 131.764 8.356C131.908 8.676 131.98 9.064 131.98 9.52ZM133.783 5.2C133.783 5.016 133.847 4.86 133.975 4.732C134.111 4.604 134.267 4.54 134.443 4.54C134.627 4.54 134.783 4.604 134.911 4.732C135.039 4.86 135.103 5.016 135.103 5.2C135.103 5.376 135.039 5.532 134.911 5.668C134.783 5.796 134.627 5.86 134.443 5.86C134.267 5.86 134.111 5.796 133.975 5.668C133.847 5.532 133.783 5.376 133.783 5.2ZM133.963 7.48H134.923V13H133.963V7.48ZM136.06 7.48H138.82V8.38H136.06V7.48ZM136.96 5.56H137.92V13H136.96V5.56ZM141.919 13.12C141.407 13.12 140.951 13 140.551 12.76C140.159 12.512 139.851 12.172 139.627 11.74C139.411 11.308 139.303 10.808 139.303 10.24C139.303 9.664 139.415 9.16 139.639 8.728C139.871 8.296 140.191 7.96 140.599 7.72C141.015 7.48 141.495 7.36 142.039 7.36C142.583 7.36 143.047 7.476 143.431 7.708C143.823 7.932 144.123 8.256 144.331 8.68C144.539 9.104 144.643 9.608 144.643 10.192C144.643 10.248 144.639 10.308 144.631 10.372C144.631 10.428 144.631 10.464 144.631 10.48H139.915V9.664H143.875L143.491 10.216C143.515 10.176 143.539 10.116 143.563 10.036C143.587 9.948 143.599 9.876 143.599 9.82C143.599 9.492 143.531 9.208 143.395 8.968C143.267 8.728 143.087 8.54 142.855 8.404C142.623 8.268 142.351 8.2 142.039 8.2C141.671 8.2 141.355 8.28 141.091 8.44C140.835 8.592 140.635 8.816 140.491 9.112C140.355 9.4 140.283 9.756 140.275 10.18C140.275 10.612 140.343 10.98 140.479 11.284C140.615 11.588 140.815 11.82 141.079 11.98C141.343 12.14 141.663 12.22 142.039 12.22C142.415 12.22 142.747 12.14 143.035 11.98C143.323 11.812 143.567 11.56 143.767 11.224L144.547 11.716C144.259 12.18 143.895 12.532 143.455 12.772C143.023 13.004 142.511 13.12 141.919 13.12ZM150.099 3.64H151.059V13H150.099V3.64ZM145.479 10.24C145.479 9.64 145.603 9.128 145.851 8.704C146.099 8.272 146.431 7.94 146.847 7.708C147.263 7.476 147.719 7.36 148.215 7.36C148.679 7.36 149.083 7.476 149.427 7.708C149.771 7.94 150.039 8.272 150.231 8.704C150.431 9.128 150.531 9.64 150.531 10.24C150.531 10.832 150.431 11.344 150.231 11.776C150.039 12.208 149.771 12.54 149.427 12.772C149.083 13.004 148.679 13.12 148.215 13.12C147.719 13.12 147.263 13.004 146.847 12.772C146.431 12.54 146.099 12.208 145.851 11.776C145.603 11.344 145.479 10.832 145.479 10.24ZM146.451 10.24C146.451 10.664 146.535 11.024 146.703 11.32C146.879 11.616 147.111 11.84 147.399 11.992C147.687 12.144 147.999 12.22 148.335 12.22C148.615 12.22 148.891 12.144 149.163 11.992C149.435 11.84 149.659 11.616 149.835 11.32C150.011 11.024 150.099 10.664 150.099 10.24C150.099 9.816 150.011 9.456 149.835 9.16C149.659 8.864 149.435 8.64 149.163 8.488C148.891 8.336 148.615 8.26 148.335 8.26C147.999 8.26 147.687 8.336 147.399 8.488C147.111 8.64 146.879 8.864 146.703 9.16C146.535 9.456 146.451 9.816 146.451 10.24Z" fill="black"/>
</svg>
